<svg width="18" height="18" viewBox="0 0 18 18" fill="none" xmlns="http://www.w3.org/2000/svg">
<path d="M12.0466 3.85666H2.73823C2.29621 3.85666 1.87228 3.68106 1.55972 3.3685C1.24716 3.05594 1.07157 2.63202 1.07157 2.18999C1.07157 1.74796 1.24716 1.32404 1.55972 1.01148C1.87228 0.698918 2.29621 0.523323 2.73823 0.523323H16.0716C16.2906 0.522663 16.5076 0.565322 16.7102 0.648846C16.9127 0.73237 17.0967 0.85511 17.2516 1.01001C17.4064 1.1649 17.5292 1.3489 17.6127 1.5514C17.6962 1.75391 17.7389 1.97093 17.7382 2.18999V15.5233C17.7382 15.9653 17.5626 16.3893 17.2501 16.7018C16.9375 17.0144 16.5136 17.19 16.0716 17.19C15.6295 17.19 15.2056 17.0144 14.8931 16.7018C14.5805 16.3893 14.4049 15.9653 14.4049 15.5233V6.21332L3.10657 17.5117C2.79383 17.8242 2.36976 17.9996 1.92765 17.9995C1.48553 17.9993 1.06158 17.8236 0.749068 17.5108C0.436555 17.1981 0.261074 16.774 0.261231 16.3319C0.261387 15.8898 0.437167 15.4658 0.749901 15.1533L12.0466 3.85666Z" fill="#BFDA64"/>
</svg>
