<svg width="18" height="18" viewBox="0 0 18 18" fill="none" xmlns="http://www.w3.org/2000/svg">
<path d="M12.0467 3.85666H2.73836C2.29633 3.85666 1.87241 3.68106 1.55985 3.3685C1.24728 3.05594 1.07169 2.63202 1.07169 2.18999C1.07169 1.74796 1.24728 1.32404 1.55985 1.01148C1.87241 0.698918 2.29633 0.523323 2.73836 0.523323H16.0717C16.2907 0.522663 16.5078 0.565322 16.7103 0.648846C16.9128 0.73237 17.0968 0.85511 17.2517 1.01001C17.4066 1.1649 17.5293 1.3489 17.6128 1.5514C17.6964 1.75391 17.739 1.97093 17.7384 2.18999V15.5233C17.7384 15.9653 17.5628 16.3893 17.2502 16.7018C16.9376 17.0144 16.5137 17.19 16.0717 17.19C15.6297 17.19 15.2057 17.0144 14.8932 16.7018C14.5806 16.3893 14.405 15.9653 14.405 15.5233V6.21332L3.10669 17.5117C2.79396 17.8242 2.36988 17.9996 1.92777 17.9995C1.48565 17.9993 1.0617 17.8236 0.74919 17.5108C0.436677 17.1981 0.261196 16.774 0.261353 16.3319C0.261509 15.8898 0.437289 15.4658 0.750023 15.1533L12.0467 3.85666Z" fill="#003E3E"/>
</svg>
