<svg width="20" height="17" viewBox="0 0 20 17" fill="none" xmlns="http://www.w3.org/2000/svg">
<path d="M20 1.90692C19.2504 2.2343 18.4565 2.44896 17.644 2.54392C18.4968 2.04315 19.138 1.24903 19.448 0.30992C18.64 0.780248 17.7587 1.11152 16.841 1.28992C16.4545 0.885125 15.9897 0.563307 15.4748 0.344098C14.9598 0.124889 14.4056 0.0128852 13.846 0.0149198C11.58 0.0149198 9.743 1.82492 9.743 4.05492C9.743 4.37092 9.779 4.67992 9.849 4.97492C8.22358 4.89761 6.63212 4.48233 5.17617 3.75556C3.72022 3.02879 2.43176 2.0065 1.393 0.75392C1.02883 1.36832 0.837415 2.0697 0.839 2.78392C0.839697 3.45189 1.00683 4.10915 1.32529 4.69631C1.64375 5.28348 2.1035 5.78203 2.663 6.14692C2.01248 6.12592 1.37602 5.95225 0.805 5.63992V5.68992C0.805 7.64792 2.22 9.28092 4.095 9.65292C3.74261 9.74642 3.37958 9.79381 3.015 9.79392C2.75 9.79392 2.493 9.76892 2.242 9.71892C2.51008 10.5268 3.02311 11.2312 3.70982 11.7343C4.39653 12.2373 5.22284 12.514 6.074 12.5259C4.61407 13.6505 2.82182 14.258 0.979 14.2529C0.647 14.2529 0.321 14.2329 0 14.1969C1.88125 15.3876 4.06259 16.0182 6.289 16.0149C13.836 16.0149 17.962 9.85792 17.962 4.51892L17.948 3.99592C18.7529 3.42959 19.4481 2.72177 20 1.90692Z" fill="#BFDA64"/>
</svg>
